<svg width="34" height="30" viewBox="0 0 34 30" fill="none" xmlns="http://www.w3.org/2000/svg">
<path d="M25.3335 26.6667H28.6668V13.3333H18.6668V26.6667H22.0002V16.6667H25.3335V26.6667ZM2.00016 26.6667V1.66667C2.00016 1.22464 2.17576 0.800716 2.48832 0.488155C2.80088 0.175595 3.2248 0 3.66683 0H27.0002C27.4422 0 27.8661 0.175595 28.1787 0.488155C28.4912 0.800716 28.6668 1.22464 28.6668 1.66667V10H32.0002V26.6667H33.6668V30H0.333496V26.6667H2.00016ZM8.66683 13.3333V16.6667H12.0002V13.3333H8.66683ZM8.66683 20V23.3333H12.0002V20H8.66683ZM8.66683 6.66667V10H12.0002V6.66667H8.66683Z" fill="#00B14F"/>
</svg>
