<svg width="241" height="273" viewBox="0 0 241 273" fill="none" xmlns="http://www.w3.org/2000/svg">
<g clip-path="url(#clip0_959_43176)">
<path d="M154.94 202.121C155.481 202.41 156.097 202.525 156.706 202.452C157.315 202.379 157.887 202.121 158.344 201.713C158.801 201.305 159.121 200.766 159.261 200.17C159.401 199.574 159.354 198.95 159.127 198.381C159.188 198.079 159.232 197.862 159.293 197.559C160.463 196.469 161.932 195.753 163.513 195.502C165.094 195.251 166.714 195.477 168.165 196.15C169.616 196.824 170.833 197.915 171.659 199.283C172.485 200.652 172.882 202.235 172.801 203.831C172.43 212.829 172.876 222.538 166.884 229.792C194.231 207.487 206.701 169.49 198.349 135.314C194.251 129.615 192.339 122.043 194.177 115.182C196.483 117.421 200.979 116.819 200.292 112.944C199.923 111.412 199.542 109.885 199.173 108.354C214.925 102.219 219.037 125.595 200.379 135.113C201.893 141.61 202.721 148.248 202.852 154.917C204.959 148.903 208.465 143.474 213.084 139.077C217.555 135.059 223.468 132.696 228.968 130C235.662 126.711 243.09 133.232 240.455 140.193C235.999 139.624 232.846 144.94 236.89 147.796C229.788 159.701 216.171 167.267 202.336 167.387C200.937 180.971 196.653 194.101 189.77 205.902C198.608 192.488 215.713 196.35 229.23 195.778C230.127 195.665 231.037 195.815 231.85 196.21C232.663 196.605 233.343 197.227 233.807 198.001C234.272 198.775 234.501 199.667 234.466 200.569C234.431 201.471 234.134 202.343 233.611 203.079C231.833 202.974 230.049 203.047 228.285 203.295C227.455 203.417 226.684 203.793 226.077 204.371C225.47 204.948 225.056 205.699 224.893 206.52C224.73 207.341 224.825 208.192 225.166 208.957C225.507 209.722 226.076 210.363 226.797 210.792C214.939 221.642 196.565 223.974 182.145 217.051C177.881 222.411 173.071 227.315 167.792 231.683L146.353 221.482C146.389 221.208 146.437 220.93 146.482 220.659C148.407 221.728 150.455 222.557 152.582 223.129C150.295 214.426 147.747 209.329 154.939 202.121H154.94Z" fill="#F2F2F2"/>
<path d="M117.057 181.535C116.665 182.006 116.137 182.345 115.546 182.507C114.954 182.668 114.327 182.644 113.75 182.439C113.172 182.233 112.672 181.854 112.317 181.355C111.962 180.856 111.77 180.26 111.765 179.648C111.595 179.391 111.472 179.206 111.301 178.949C109.806 178.38 108.174 178.27 106.615 178.632C105.056 178.995 103.642 179.814 102.552 180.984C101.463 182.155 100.748 183.623 100.501 185.201C100.253 186.78 100.483 188.396 101.161 189.843C104.905 198.037 108.162 207.197 116.452 211.659C82.6955 201.298 56.7875 170.801 51.6066 136.006C53.2479 129.185 52.157 121.453 47.862 115.791C46.5723 118.732 42.1816 119.868 41.3532 116.02C41.1158 114.463 40.8919 112.905 40.6543 111.348C23.7483 111.596 28.774 134.794 49.6505 136.584C50.7042 143.171 52.4449 149.63 54.8443 155.856C50.6208 151.08 45.3217 147.372 39.3826 145.039C33.7227 143.001 27.3538 143.038 21.2407 142.612C13.7987 142.086 9.3833 150.922 14.4549 156.377C18.3663 154.173 23.2952 157.909 20.63 162.077C31.7059 170.428 47.1766 172.309 60.0352 167.211C66.4644 179.264 75.3937 189.812 86.2279 198.15C72.9732 189.054 58.592 199.07 45.8574 203.63C44.9841 203.863 44.1977 204.345 43.5941 205.017C42.9905 205.688 42.5958 206.521 42.458 207.412C42.3203 208.304 42.4456 209.217 42.8185 210.038C43.1915 210.86 43.796 211.556 44.5584 212.041C46.1659 211.275 47.8456 210.67 49.5729 210.236C50.3876 210.037 51.244 210.095 52.0246 210.401C52.8052 210.707 53.4719 211.247 53.9332 211.946C54.3945 212.645 54.6278 213.469 54.6013 214.306C54.5748 215.143 54.2896 215.951 53.7849 216.619C68.8669 222.203 86.7649 217.446 97.5038 205.604C103.478 208.964 109.786 211.694 116.326 213.752L132.327 196.233C132.189 195.993 132.039 195.753 131.896 195.519C130.517 197.234 128.933 198.773 127.179 200.103C126.008 191.183 126.442 185.502 117.057 181.535L117.057 181.535Z" fill="#F2F2F2"/>
<path d="M121.175 107.51C121.785 107.448 122.361 107.201 122.826 106.802C123.291 106.402 123.621 105.87 123.772 105.276C123.924 104.683 123.889 104.058 123.672 103.485C123.456 102.913 123.068 102.42 122.562 102.075C122.443 101.79 122.358 101.585 122.24 101.3C122.602 99.7442 123.422 98.3316 124.594 97.2436C125.766 96.1555 127.237 95.4416 128.818 95.1933C130.399 94.9451 132.018 95.1737 133.468 95.85C134.919 96.5263 136.133 97.6195 136.957 98.9893C141.676 106.665 147.469 114.477 146.547 123.834C156.79 90.0985 145.915 51.616 119.892 27.8932C113.306 25.4423 107.49 20.2207 105.183 13.5022C108.348 14.0773 111.743 11.0763 109.008 8.24144C107.847 7.17508 106.677 6.11971 105.516 5.05328C115.165 -8.80491 131.637 8.31214 121.464 26.5963C126.35 31.1477 130.746 36.1964 134.58 41.6602C132.97 35.4958 132.848 29.0377 134.226 22.8172C135.693 16.993 139.281 11.741 142.342 6.44184C146.061 -0.0135916 155.87 1.26584 157.571 8.51147C153.554 10.5187 153.906 16.6861 158.859 16.8073C159.613 30.6417 152.536 44.5008 141.118 52.2998C147.544 64.3546 151.322 77.6381 152.201 91.265C152.044 75.211 168.401 68.8986 179.303 60.9019C179.984 60.3091 180.824 59.9271 181.719 59.8024C182.614 59.6778 183.527 59.8159 184.345 60.1999C185.163 60.5839 185.851 61.1972 186.326 61.965C186.8 62.7328 187.041 63.6219 187.018 64.5239C185.484 65.427 184.043 66.48 182.717 67.6674C182.097 68.2309 181.667 68.9721 181.485 69.7894C181.303 70.6067 181.38 71.46 181.703 72.2324C182.026 73.0048 182.581 73.6584 183.291 74.1037C184.001 74.5491 184.832 74.7643 185.67 74.7198C181.887 90.3255 167.937 102.487 152.098 104.764C151.553 111.587 150.299 118.334 148.357 124.898L124.861 128.361C124.738 128.113 124.623 127.855 124.509 127.606C126.703 127.422 128.868 126.97 130.953 126.261C124.193 120.309 119.23 117.496 121.174 107.51L121.175 107.51Z" fill="#F2F2F2"/>
<path d="M144.806 99.99C134.109 99.99 128.307 98.6853 126.281 95.9004C124.493 93.4432 125.692 90.2011 127.08 86.4472C128.077 83.7489 129.208 80.6908 129.208 77.6641C129.208 62.943 136.686 55.4785 151.435 55.4785C158.774 55.4785 166.653 59.3694 172.512 65.8867C177.839 71.8117 180.493 78.9028 179.793 85.3417C179.219 90.6224 176.756 94.0952 172.043 96.2712L171.767 96.3984L171.689 96.1056C171.282 94.59 170.593 93.1642 169.658 91.9027C169.567 93.883 169.067 95.8231 168.189 97.6013L168.139 97.7026L168.03 97.7337C162.696 99.2503 156.365 99.6612 151.445 99.8495C149.051 99.9426 146.838 99.9895 144.806 99.99Z" fill="#2F2E41"/>
<path d="M147.721 120.502C147.311 119.299 146.619 118.211 145.704 117.328C144.788 116.446 143.675 115.793 142.456 115.426C141.238 115.059 139.949 114.987 138.697 115.216C137.445 115.446 136.265 115.97 135.257 116.745L100.073 137.741L89.0631 110.928C89.9932 109.566 90.4672 107.946 90.4173 106.298C90.3674 104.651 89.796 103.062 88.7852 101.758C87.7744 100.455 86.376 99.5047 84.7906 99.0438C83.2053 98.5828 81.5143 98.6348 79.9604 99.1923C78.4065 99.7498 77.0694 100.784 76.1409 102.147C75.2124 103.51 74.7401 105.131 74.7919 106.779C74.8437 108.426 75.4169 110.015 76.4292 111.317C77.4415 112.619 78.8409 113.568 80.4268 114.027C81.1054 121.759 84.8766 156.318 97.9959 155.062C109.023 154.006 136.409 135.802 144.915 129.49C146.276 128.481 147.281 127.067 147.785 125.452C148.289 123.837 148.267 122.103 147.721 120.502Z" fill="#FFB6B6"/>
<path d="M174.234 273.001H143.612L138.476 247.658L136.81 273.001H108.364C108.375 253.099 109.414 233.211 111.476 213.416L111.829 212.217L112.386 210.3L112.738 209.096L118.625 188.92L119.09 187.318H154.536C156.576 189.231 158.457 191.305 160.162 193.52C160.74 194.255 161.342 195.05 161.961 195.907C162.39 196.514 162.835 197.151 163.279 197.82C167.229 203.688 170.181 210.168 172.017 216.996V217.001C172.329 218.169 172.604 219.364 172.845 220.587V220.592C173.059 221.678 173.248 222.78 173.396 223.907C173.509 224.728 173.606 225.559 173.678 226.401C174.104 231.063 173.954 235.76 173.233 240.385L174.234 273.001Z" fill="#2F2E41"/>
<path d="M11.8723 41.2713C13.861 40.503 15.0391 38.7607 14.5035 37.3798C13.968 35.999 11.9217 35.5025 9.93293 36.2708C7.94421 37.0392 6.76617 38.7815 7.30171 40.1624C7.83725 41.5432 9.88356 42.0397 11.8723 41.2713Z" fill="#E6E6E6"/>
<path d="M36.9113 38.0643C38.9001 37.2959 40.0781 35.5536 39.5426 34.1728C39.0071 32.7919 36.9607 32.2954 34.972 33.0638C32.9833 33.8322 31.8052 35.5745 32.3408 36.9553C32.8763 38.3362 34.9226 38.8327 36.9113 38.0643Z" fill="#3F3D56"/>
<path d="M9.70043 62.5936C11.6892 61.8252 12.8672 60.0829 12.3317 58.7021C11.7961 57.3212 9.7498 56.8247 7.76107 57.5931C5.77235 58.3615 4.59429 60.1038 5.12983 61.4846C5.66537 62.8655 7.7117 63.362 9.70043 62.5936Z" fill="#FF6584"/>
<path d="M2.4568 71.9987C3.36916 71.7831 3.85714 70.5472 3.54671 69.2381C3.23629 67.9291 2.24501 67.0426 1.33264 67.2582C0.420279 67.4737 -0.0676847 68.7096 0.242742 70.0187C0.553168 71.3277 1.54443 72.2142 2.4568 71.9987Z" fill="#E6E6E6"/>
<path d="M2.30738 87.9225C3.21975 87.7069 3.70771 86.471 3.39728 85.162C3.08686 83.8529 2.09559 82.9665 1.18323 83.182C0.270865 83.3975 -0.217099 84.6335 0.0933276 85.9425C0.403754 87.2516 1.39502 88.138 2.30738 87.9225Z" fill="#3F3D56"/>
<path d="M24.2839 54.94C25.1963 54.7245 25.6843 53.4886 25.3738 52.1795C25.0634 50.8705 24.0722 49.984 23.1598 50.1996C22.2474 50.4151 21.7595 51.651 22.0699 52.9601C22.3803 54.2691 23.3716 55.1556 24.2839 54.94Z" fill="#E6E6E6"/>
<path d="M11.0964 51.7448C12.0088 51.5292 12.4968 50.2933 12.1863 48.9842C11.8759 47.6752 10.8847 46.7887 9.97229 47.0043C9.05993 47.2198 8.57196 48.4557 8.88239 49.7648C9.19282 51.0738 10.1841 51.9603 11.0964 51.7448Z" fill="#FF6584"/>
<path d="M25.075 37.0807C25.9873 36.8651 26.4753 35.6292 26.1649 34.3202C25.8544 33.0111 24.8632 32.1247 23.9508 32.3402C23.0384 32.5557 22.5505 33.7917 22.8609 35.1007C23.1713 36.4098 24.1626 37.2962 25.075 37.0807Z" fill="#3F3D56"/>
<path d="M31.5758 147.294C32.5374 146.167 32.0005 144.134 30.3766 142.755C28.7527 141.375 26.6568 141.171 25.6952 142.298C24.7336 143.426 25.2705 145.458 26.8944 146.838C28.5183 148.218 30.6142 148.422 31.5758 147.294Z" fill="#E6E6E6"/>
<path d="M16.8278 126.843C17.7894 125.716 17.2524 123.683 15.6286 122.304C14.0047 120.924 11.9087 120.72 10.9471 121.847C9.98557 122.975 10.5225 125.007 12.1464 126.387C13.7703 127.766 15.8662 127.971 16.8278 126.843Z" fill="#3F3D56"/>
<path d="M51.3952 139.046C52.3568 137.919 51.8198 135.886 50.1959 134.507C48.572 133.127 46.4761 132.923 45.5145 134.05C44.5529 135.178 45.0899 137.21 46.7138 138.59C48.3377 139.97 50.4336 140.174 51.3952 139.046Z" fill="#FF6584"/>
<path d="M61.2416 139.274C62.2471 138.378 62.5561 137.086 61.9318 136.387C61.3075 135.689 59.9863 135.85 58.9808 136.745C57.9753 137.641 57.6663 138.933 58.2906 139.631C58.9149 140.329 60.2361 140.169 61.2416 139.274Z" fill="#E6E6E6"/>
<path d="M75.3422 131.822C76.3477 130.927 76.6567 129.634 76.0324 128.936C75.4081 128.238 74.0869 128.398 73.0814 129.294C72.0759 130.19 71.7668 131.482 72.3912 132.18C73.0155 132.878 74.3367 132.718 75.3422 131.822Z" fill="#3F3D56"/>
<path d="M35.8198 128.236C36.8253 127.341 37.1343 126.049 36.51 125.35C35.8856 124.652 34.5644 124.812 33.5589 125.708C32.5534 126.604 32.2444 127.896 32.8687 128.594C33.493 129.292 34.8143 129.132 35.8198 128.236Z" fill="#E6E6E6"/>
<path d="M39.2826 141.334C40.2881 140.438 40.5971 139.146 39.9728 138.448C39.3485 137.75 38.0273 137.91 37.0218 138.806C36.0163 139.702 35.7073 140.994 36.3316 141.692C36.9559 142.39 38.2771 142.23 39.2826 141.334Z" fill="#FF6584"/>
<path d="M19.7084 136.047C20.7139 135.151 21.0229 133.859 20.3986 133.161C19.7743 132.463 18.4531 132.623 17.4476 133.519C16.4421 134.414 16.1331 135.707 16.7574 136.405C17.3817 137.103 18.7029 136.943 19.7084 136.047Z" fill="#3F3D56"/>
<path d="M130.648 16.1281C131.979 15.4747 132.295 13.3966 131.354 11.4865C130.413 9.57652 128.571 8.55789 127.239 9.21135C125.908 9.86481 125.592 11.9429 126.533 13.8529C127.474 15.7629 129.316 16.7816 130.648 16.1281Z" fill="#E6E6E6"/>
<path d="M136.041 40.7434C137.372 40.0899 137.689 38.0118 136.747 36.1018C135.806 34.1918 133.964 33.1731 132.633 33.8266C131.302 34.48 130.986 36.5581 131.927 38.4682C132.868 40.3782 134.71 41.3968 136.041 40.7434Z" fill="#3F3D56"/>
<path d="M109.176 15.8371C110.507 15.1836 110.823 13.1055 109.882 11.1955C108.941 9.28551 107.099 8.26686 105.768 8.92032C104.437 9.57378 104.12 11.6519 105.061 13.5619C106.003 15.4719 107.845 16.4906 109.176 15.8371Z" fill="#FF6584"/>
<path d="M97.8907 8.02629C99.17 7.60294 99.9678 6.53969 99.6728 5.65144C99.3777 4.76319 98.1015 4.38629 96.8222 4.80963C95.5429 5.23298 94.7451 6.29625 95.0401 7.1845C95.3352 8.07276 96.6114 8.44964 97.8907 8.02629Z" fill="#E6E6E6"/>
<path d="M81.9844 9.27239C83.2637 8.84904 84.0616 7.78578 83.7665 6.89753C83.4715 6.00927 82.1952 5.63239 80.9159 6.05574C79.6366 6.47908 78.8388 7.54234 79.1339 8.43059C79.4289 9.31884 80.7051 9.69573 81.9844 9.27239Z" fill="#3F3D56"/>
<path d="M116.827 28.2333C118.107 27.81 118.904 26.7467 118.609 25.8585C118.314 24.9702 117.038 24.5933 115.759 25.0167C114.479 25.44 113.682 26.5033 113.977 27.3915C114.272 28.2798 115.548 28.6567 116.827 28.2333Z" fill="#E6E6E6"/>
<path d="M118.862 14.8407C120.142 14.4174 120.94 13.3541 120.644 12.4659C120.349 11.5776 119.073 11.2007 117.794 11.6241C116.515 12.0474 115.717 13.1107 116.012 13.9989C116.307 14.8872 117.583 15.2641 118.862 14.8407Z" fill="#FF6584"/>
<path d="M134.722 27.454C136.001 27.0307 136.799 25.9674 136.504 25.0792C136.209 24.1909 134.933 23.814 133.653 24.2374C132.374 24.6607 131.576 25.724 131.871 26.6122C132.166 27.5005 133.442 27.8774 134.722 27.454Z" fill="#3F3D56"/>
<path d="M139.632 104.088L156.502 103.221L164.338 115.579C164.338 115.579 179.081 118.039 178.059 135.38C177.038 152.72 160.121 167.937 160.121 167.937L160.844 176.967L159.588 180.548L159.749 182.56L161.463 184.689L161.639 186.892L160.121 190.377L162.185 193.714L118.786 189.517L117.199 183.747L119.514 180.648L118.221 176.607L120.165 172.719L121.179 160.371C121.179 160.371 110.088 143.741 122.82 131.216L127.93 122.545L133.647 115.583L139.632 104.088Z" fill="#5D26D3"/>
<path d="M148.019 100.599C157.892 100.599 165.895 92.6106 165.895 82.7565C165.895 72.9024 157.892 64.9141 148.019 64.9141C138.146 64.9141 130.143 72.9024 130.143 82.7565C130.143 92.6106 138.146 100.599 148.019 100.599Z" fill="#FFB6B6"/>
<path d="M145.626 81.6756C144.085 81.6756 142.546 81.6322 141.007 81.5456L140.732 81.5301L140.768 81.2577C140.995 79.5546 140.867 77.8232 140.394 76.1715C139.589 78.0522 138.392 79.7399 136.882 81.1222L136.796 81.2002L136.681 81.1877C132.502 80.7314 128.361 79.9776 124.29 78.932L124.134 78.8922L124.103 78.7348C123.799 77.2444 123.641 75.7279 123.633 74.2069C123.633 69.4557 125.359 65.4567 128.493 62.9467C131.904 60.2146 136.793 59.3744 142.266 60.5795H159.764C161.688 60.5816 163.532 61.3453 164.892 62.7031C166.253 64.0608 167.018 65.9016 167.02 67.8218V78.8819L166.829 78.9317C159.908 80.7473 152.782 81.6694 145.626 81.6756Z" fill="#2F2E41"/>
<path d="M23.6488 61.8279C22.8654 62.1139 22.2277 62.6983 21.8756 63.453C21.5234 64.2076 21.4855 65.0709 21.7703 65.8534L40.6475 117.553C40.9339 118.335 41.5194 118.971 42.2755 119.323C43.0316 119.674 43.8965 119.712 44.6805 119.428L117.946 92.7772C118.729 92.4913 119.367 91.9068 119.719 91.1522C120.072 90.3975 120.109 89.5342 119.825 88.7518L100.947 37.0522C100.661 36.2703 100.075 35.6338 99.3194 35.2823C98.5633 34.9307 97.6984 34.8929 96.9144 35.1771L23.6488 61.8279Z" fill="#CCCCCC"/>
<path d="M90.6779 99.847L45.8318 116.16C44.988 116.466 44.0571 116.425 43.2434 116.047C42.4296 115.669 41.7994 114.983 41.4911 114.142L24.3697 67.2509C24.0632 66.4088 24.1039 65.4796 24.483 64.6674C24.862 63.8552 25.5484 63.2262 26.3915 62.9184L95.5171 37.7735C96.3609 37.4677 97.2918 37.5084 98.1055 37.8867C98.9193 38.2651 99.5495 38.9502 99.8578 39.7917L108.131 62.449C110.776 69.7187 110.424 77.7389 107.152 84.75C103.88 91.7611 97.9554 97.1905 90.6779 99.847Z" fill="white"/>
<path d="M58.4089 65.9719L47.7519 69.8484C47.6183 69.8971 47.4763 69.9189 47.3342 69.9128C47.1921 69.9067 47.0526 69.8726 46.9237 69.8127C46.7947 69.7527 46.6789 69.668 46.5827 69.5634C46.4866 69.4588 46.412 69.3363 46.3633 69.2029C46.3146 69.0695 46.2927 68.9278 46.2989 68.786C46.305 68.6441 46.3391 68.5049 46.3991 68.3762C46.4592 68.2475 46.5441 68.1319 46.6489 68.0359C46.7537 67.9399 46.8765 67.8655 47.0101 67.8169L57.6671 63.9404C57.937 63.8422 58.2349 63.855 58.4953 63.9761C58.7557 64.0972 58.9573 64.3165 59.0557 64.5859C59.1541 64.8553 59.1412 65.1527 59.0199 65.4126C58.8986 65.6725 58.6788 65.8737 58.4089 65.9719H58.4089Z" fill="#5D26D3"/>
<path d="M83.8152 61.4368L49.2688 74.0032C49.1351 74.052 48.9931 74.0741 48.8509 74.0681C48.7086 74.062 48.569 74.0281 48.4399 73.9682C48.3108 73.9083 48.1948 73.8236 48.0986 73.7189C48.0023 73.6142 47.9277 73.4916 47.879 73.3581C47.8302 73.2246 47.8083 73.0828 47.8145 72.9409C47.8207 72.7989 47.8549 72.6596 47.9151 72.5308C47.9752 72.402 48.0603 72.2864 48.1653 72.1904C48.2703 72.0945 48.3932 72.0201 48.527 71.9717L83.0734 59.4052C83.207 59.3566 83.3489 59.3347 83.4911 59.3409C83.6332 59.347 83.7727 59.381 83.9016 59.4409C84.0306 59.5009 84.1464 59.5856 84.2426 59.6902C84.3387 59.7949 84.4133 59.9174 84.462 60.0508C84.5107 60.1842 84.5326 60.3258 84.5264 60.4677C84.5203 60.6095 84.4862 60.7488 84.4262 60.8775C84.3661 61.0062 84.2812 61.1218 84.1764 61.2178C84.0715 61.3137 83.9488 61.3881 83.8152 61.4368Z" fill="#5D26D3"/>
<path d="M85.5561 66.2058L51.0097 78.7723C50.8761 78.8209 50.7342 78.8428 50.592 78.8366C50.4499 78.8305 50.3104 78.7965 50.1815 78.7365C50.0525 78.6766 49.9367 78.5919 49.8405 78.4872C49.7444 78.3826 49.6698 78.2601 49.6211 78.1267C49.5724 77.9933 49.5505 77.8517 49.5567 77.7098C49.5628 77.568 49.5969 77.4287 49.657 77.3C49.717 77.1713 49.8019 77.0557 49.9067 76.9597C50.0116 76.8638 50.1343 76.7894 50.2679 76.7407L84.8143 64.1743C85.0841 64.0765 85.3818 64.0896 85.6419 64.2108C85.9021 64.3319 86.1034 64.5511 86.2017 64.8203C86.2999 65.0895 86.2872 65.3866 86.1661 65.6464C86.0451 65.9062 85.8257 66.1074 85.5561 66.2058Z" fill="#5D26D3"/>
<path d="M87.2976 70.9739L52.7512 83.5403C52.6175 83.5892 52.4755 83.6112 52.3333 83.6052C52.191 83.5992 52.0514 83.5652 51.9223 83.5053C51.7932 83.4454 51.6772 83.3607 51.581 83.256C51.4847 83.1513 51.4101 83.0287 51.3614 82.8952C51.3126 82.7617 51.2907 82.6199 51.2969 82.478C51.3031 82.336 51.3373 82.1967 51.3975 82.0679C51.4577 81.9392 51.5427 81.8235 51.6477 81.7276C51.7527 81.6316 51.8756 81.5573 52.0094 81.5088L86.5558 68.9423C86.6894 68.8937 86.8314 68.8718 86.9735 68.878C87.1156 68.8841 87.2551 68.9181 87.384 68.9781C87.513 69.038 87.6288 69.1227 87.725 69.2274C87.8211 69.332 87.8957 69.4545 87.9444 69.5879C87.9931 69.7213 88.015 69.8629 88.0089 70.0048C88.0027 70.1466 87.9686 70.2859 87.9086 70.4146C87.8485 70.5433 87.7636 70.6589 87.6588 70.7549C87.554 70.8508 87.4312 70.9252 87.2976 70.9739Z" fill="#5D26D3"/>
<path d="M89.0385 75.7434L54.4922 88.3099C54.2223 88.408 53.9243 88.3952 53.6639 88.2741C53.4035 88.153 53.2019 87.9337 53.1036 87.6643C53.0052 87.3949 53.0181 87.0975 53.1394 86.8376C53.2607 86.5777 53.4805 86.3765 53.7504 86.2783L88.2967 73.7118C88.4304 73.6632 88.5723 73.6414 88.7144 73.6475C88.8566 73.6536 88.9961 73.6876 89.125 73.7476C89.2539 73.8075 89.3698 73.8922 89.4659 73.9969C89.5621 74.1015 89.6366 74.224 89.6853 74.3574C89.7341 74.4908 89.756 74.6325 89.7498 74.7743C89.7437 74.9162 89.7096 75.0554 89.6495 75.1841C89.5895 75.3128 89.5046 75.4284 89.3998 75.5244C89.2949 75.6204 89.1722 75.6948 89.0385 75.7434H89.0385Z" fill="#5D26D3"/>
<path d="M198.655 88.9879L179.74 134.165C178.933 136.077 177.405 137.595 175.487 138.392C173.568 139.19 171.412 139.202 169.485 138.427C168.487 138.026 167.582 137.426 166.825 136.665C166.067 135.903 165.473 134.996 165.078 133.997C164.684 132.999 164.497 131.931 164.529 130.858C164.561 129.786 164.812 128.731 165.266 127.758L186.355 81.4315L197.981 52.7425C196.976 51.7425 196.304 50.458 196.057 49.0636C195.809 47.6692 195.997 46.2325 196.596 44.9487C197.195 43.6649 198.175 42.5962 199.404 41.8878C200.632 41.1794 202.049 40.8656 203.463 40.9892C204.876 41.1128 206.217 41.6676 207.304 42.5784C208.39 43.4891 209.17 44.7116 209.536 46.0798C209.902 47.448 209.837 48.8955 209.35 50.2257C208.863 51.5559 207.978 52.7043 206.815 53.5148L198.655 88.9879Z" fill="#FFB6B6"/>
</g>
<defs>
<clipPath id="clip0_959_43176">
<rect width="241" height="273" fill="white"/>
</clipPath>
</defs>
</svg>
