<svg width="36" height="33" viewBox="0 0 36 33" fill="none" xmlns="http://www.w3.org/2000/svg">
<path d="M21.5348 13.4667C21.2222 13.1542 20.7984 12.9787 20.3564 12.9787C19.9145 12.9787 19.4906 13.1542 19.1781 13.4667L17.9998 14.6434C17.6923 14.9617 17.3245 15.2157 16.9178 15.3904C16.5111 15.5651 16.0737 15.657 15.6311 15.6609C15.1885 15.6647 14.7496 15.5804 14.3399 15.4128C13.9303 15.2452 13.5581 14.9976 13.2451 14.6847C12.9321 14.3717 12.6846 13.9995 12.517 13.5899C12.3494 13.1802 12.2651 12.7413 12.2689 12.2987C12.2728 11.8561 12.3647 11.4187 12.5394 11.012C12.7141 10.6053 12.9681 10.2375 13.2864 9.93002L22.6698 0.543355C24.8913 0.0380656 27.2156 0.246019 29.3122 1.13765C31.4087 2.02927 33.1708 3.55919 34.3479 5.50984C35.525 7.4605 36.0571 9.7326 35.8686 12.0031C35.6802 14.2735 34.7807 16.4268 33.2981 18.1567L29.7848 21.715L21.5348 13.465V13.4667ZM3.2681 3.44669C4.9927 1.72232 7.24847 0.629987 9.6707 0.346299C12.0929 0.0626107 14.5401 0.604147 16.6164 1.88336L10.9281 7.57335C9.6961 8.8029 8.99382 10.4655 8.97133 12.206C8.94884 13.9464 9.60792 15.6266 10.8077 16.8876C12.0076 18.1485 13.653 18.8903 15.3924 18.9543C17.1318 19.0182 18.8272 18.3994 20.1164 17.23L20.3564 17.0017L27.4281 24.0717L20.3564 31.1434C19.7313 31.7683 18.8837 32.1193 17.9998 32.1193C17.1159 32.1193 16.2682 31.7683 15.6431 31.1434L3.26644 18.7667C1.23499 16.7351 0.09375 13.9797 0.09375 11.1067C0.09375 8.23367 1.23499 5.47831 3.26644 3.44669H3.2681Z" fill="#00B14F"/>
</svg>
