<svg width="456" height="460" viewBox="0 0 456 460" fill="none" xmlns="http://www.w3.org/2000/svg">
<g clip-path="url(#clip0_445_6732)">
<path d="M115.028 441.421C114.525 441.444 114.027 441.312 113.601 441.042C113.176 440.772 112.843 440.378 112.649 439.912C112.454 439.447 112.408 438.933 112.515 438.44C112.622 437.948 112.878 437.5 113.248 437.157C113.31 436.911 113.354 436.734 113.416 436.487C112.934 435.262 112.099 434.209 111.015 433.463C109.932 432.717 108.652 432.312 107.337 432.3C106.022 432.287 104.734 432.668 103.637 433.394C102.54 434.119 101.685 435.156 101.18 436.372C98.2689 443.195 94.5009 450.259 96.3748 457.775C83.997 431.507 88.2064 398.832 106.499 376.369C111.555 373.58 115.654 368.624 116.721 362.871C114.218 363.72 111.098 361.682 112.98 359.042C113.795 358.033 114.619 357.033 115.434 356.024C105.928 345.887 94.6023 361.818 105.065 375.5C101.643 379.797 98.6778 384.441 96.2194 389.355C96.7871 384.137 96.1095 378.858 94.2423 373.953C92.3499 369.382 88.8029 365.532 85.6793 361.58C81.8815 356.765 74.065 358.986 73.554 365.097C77.0589 366.25 77.5142 371.32 73.505 372.014C74.5551 383.381 81.9718 393.828 92.1868 398.813C88.4145 409.412 86.9415 420.694 87.8659 431.907C86.0629 418.802 72.0142 415.622 62.1948 410.413C61.5699 410.012 60.8418 409.801 60.0994 409.807C59.357 409.813 58.6323 410.035 58.0138 410.447C57.3954 410.858 56.9098 411.441 56.6164 412.123C56.323 412.806 56.2344 413.56 56.3615 414.293C57.7167 414.844 59.0139 415.53 60.2339 416.338C60.8056 416.723 61.2444 417.275 61.4901 417.92C61.7359 418.564 61.7766 419.269 61.6068 419.937C61.4369 420.606 61.0647 421.205 60.5412 421.654C60.0177 422.102 59.3685 422.377 58.6827 422.442C63.6323 434.708 76.4289 442.945 89.5719 442.898C90.8349 448.394 92.6649 453.743 95.0324 458.86H114.539C114.609 458.643 114.672 458.419 114.735 458.202C112.929 458.316 111.117 458.208 109.337 457.88C114.114 452.217 117.809 449.327 115.029 441.421L115.028 441.421Z" fill="#F2F2F2"/>
<path d="M288.935 441.421C289.438 441.444 289.936 441.312 290.361 441.042C290.787 440.772 291.119 440.378 291.314 439.912C291.508 439.447 291.555 438.933 291.448 438.44C291.341 437.948 291.085 437.5 290.715 437.157C290.653 436.911 290.609 436.734 290.547 436.487C291.028 435.262 291.864 434.209 292.947 433.463C294.03 432.717 295.311 432.312 296.625 432.3C297.94 432.287 299.228 432.668 300.325 433.394C301.422 434.119 302.278 435.156 302.782 436.372C305.694 443.195 309.462 450.259 307.588 457.775C319.965 431.507 315.756 398.832 297.463 376.369C292.407 373.58 288.309 368.624 287.242 362.871C289.744 363.72 292.864 361.682 290.983 359.042C290.167 358.033 289.344 357.033 288.528 356.024C298.034 345.887 309.36 361.818 298.897 375.5C302.32 379.797 305.285 384.441 307.743 389.355C307.175 384.137 307.853 378.858 309.72 373.953C311.613 369.382 315.16 365.532 318.283 361.58C322.081 356.765 329.897 358.986 330.409 365.097C326.904 366.25 326.448 371.32 330.457 372.014C329.407 383.381 321.991 393.828 311.776 398.813C315.548 409.412 317.021 420.694 316.097 431.907C317.9 418.802 331.948 415.622 341.768 410.413C342.393 410.012 343.121 409.801 343.863 409.807C344.606 409.813 345.33 410.035 345.949 410.447C346.567 410.858 347.053 411.441 347.346 412.123C347.639 412.806 347.728 413.56 347.601 414.293C346.246 414.844 344.949 415.53 343.729 416.338C343.157 416.723 342.718 417.275 342.472 417.92C342.227 418.564 342.186 419.269 342.356 419.937C342.526 420.606 342.898 421.205 343.421 421.654C343.945 422.102 344.594 422.377 345.28 422.442C340.33 434.708 327.534 442.945 314.391 442.898C313.128 448.394 311.298 453.743 308.93 458.86H289.423C289.353 458.643 289.29 458.419 289.228 458.202C291.033 458.316 292.846 458.208 294.625 457.88C289.848 452.217 286.154 449.327 288.934 441.421L288.935 441.421Z" fill="#F2F2F2"/>
<path d="M296.167 444.321L287.767 446.234L276.397 414.7L288.795 411.875L296.167 444.321Z" fill="#FFB6B6"/>
<path d="M298.458 453.029L272.624 458.914L272.55 458.587C271.943 455.917 272.421 453.115 273.877 450.797C275.334 448.479 277.65 446.836 280.317 446.228L280.317 446.228L284.221 441.568L293.84 443.147L296.095 442.633L298.458 453.029Z" fill="#2F2E41"/>
<path d="M431.684 290.609L436.302 297.891L410.447 319.195L403.631 308.447L431.684 290.609Z" fill="#FFB6B6"/>
<path d="M439.108 285.527L453.31 307.922L453.028 308.102C450.719 309.57 447.922 310.059 445.253 309.463C442.584 308.866 440.261 307.233 438.794 304.921L438.794 304.92L433.1 302.801L431.359 293.198L430.12 291.243L439.108 285.527Z" fill="#2F2E41"/>
<path d="M163.9 212.75L161.826 200.708L193.37 186.445L200.182 174.368C199.962 173.308 200.039 172.208 200.404 171.189C200.769 170.17 201.409 169.272 202.252 168.595C203.094 167.917 204.108 167.485 205.18 167.348C206.252 167.211 207.342 167.373 208.328 167.817C209.314 168.261 210.158 168.969 210.767 169.863C211.377 170.757 211.728 171.802 211.781 172.883C211.834 173.964 211.588 175.039 211.07 175.989C210.551 176.939 209.781 177.727 208.843 178.265L197.637 195.614L163.9 212.75Z" fill="#A0616A"/>
<path d="M154.312 202.906L168.517 195.64L172.277 209.778L162.41 217.102L154.312 202.906Z" fill="#5C26D2"/>
<path d="M122.436 443.226L131.025 443.225L135.111 410.052L122.434 410.052L122.436 443.226Z" fill="#A0616A"/>
<path d="M133.883 444V438.169L131.625 438.308L122.433 438.853L120.306 438.984L118.679 458.511L118.592 459.558H124.691L124.887 458.518L125.773 453.793L128.06 458.518L128.561 459.558H144.73C145.692 459.552 146.613 459.166 147.293 458.484C147.972 457.802 148.356 456.879 148.36 455.916C149.043 452.724 135.596 445.825 133.883 444Z" fill="#2F2E41"/>
<path d="M20.4798 311.574L18.4776 319.938L49.7416 331.651L52.6963 319.307L20.4798 311.574Z" fill="#A0616A"/>
<path d="M17.7387 322.54L23.4011 323.9L23.7935 321.669L25.4071 312.591L25.776 310.489L7.19118 304.353L6.1948 304.024L4.7728 309.962L5.73672 310.396L10.1194 312.36L4.99695 313.485L3.87051 313.731L0.10056 329.475C-0.117856 330.413 0.0421994 331.4 0.546001 332.221C1.0498 333.041 1.85665 333.63 2.79134 333.859C5.7317 335.267 15.5671 323.783 17.7387 322.54Z" fill="#2F2E41"/>
<path d="M135.716 228.529L124.661 223.354L102.614 250.07L89.1844 253.471C88.2213 252.979 87.1413 252.764 86.0636 252.849C84.9859 252.933 83.9525 253.314 83.0775 253.95C82.2026 254.586 81.5201 255.451 81.1055 256.451C80.691 257.45 80.5604 258.545 80.7283 259.615C80.8962 260.684 81.356 261.686 82.0569 262.51C82.7578 263.334 83.6725 263.948 84.7001 264.284C85.7276 264.62 86.8279 264.666 87.8795 264.415C88.9311 264.164 89.8931 263.627 90.6591 262.864L110.324 256.606L135.716 228.529Z" fill="#A0616A"/>
<path d="M292.454 129.629C290.11 129.629 287.819 128.933 285.871 127.63C283.922 126.326 282.404 124.473 281.507 122.305C280.61 120.137 280.375 117.752 280.833 115.45C281.29 113.149 282.418 111.035 284.075 109.375C285.732 107.716 287.844 106.586 290.142 106.128C292.44 105.671 294.823 105.906 296.988 106.804C299.153 107.702 301.003 109.222 302.305 111.173C303.607 113.124 304.302 115.418 304.302 117.765C304.299 120.91 303.049 123.926 300.828 126.15C298.607 128.374 295.595 129.626 292.454 129.629ZM292.454 107.262C290.379 107.262 288.351 107.878 286.626 109.032C284.901 110.186 283.557 111.826 282.763 113.745C281.969 115.665 281.761 117.776 282.166 119.814C282.571 121.851 283.57 123.723 285.037 125.191C286.504 126.66 288.373 127.66 290.407 128.066C292.442 128.471 294.551 128.263 296.468 127.468C298.384 126.673 300.022 125.327 301.175 123.6C302.327 121.873 302.942 119.842 302.942 117.765C302.939 114.98 301.833 112.311 299.867 110.342C297.9 108.373 295.234 107.265 292.454 107.262Z" fill="#E6E6E6"/>
<path d="M291.617 122.235C291.594 122.235 291.57 122.234 291.546 122.233C291.336 122.223 291.13 122.167 290.943 122.07C290.756 121.973 290.593 121.836 290.463 121.67L288.597 119.267C288.479 119.115 288.392 118.942 288.341 118.756C288.29 118.571 288.276 118.378 288.3 118.187C288.324 117.996 288.385 117.812 288.48 117.645C288.575 117.478 288.701 117.331 288.853 117.213L288.92 117.161C289.072 117.043 289.245 116.956 289.43 116.905C289.615 116.854 289.808 116.84 289.999 116.864C290.189 116.887 290.373 116.949 290.54 117.044C290.707 117.139 290.853 117.266 290.971 117.418C291.066 117.539 291.185 117.638 291.321 117.709C291.457 117.78 291.607 117.82 291.76 117.828C291.914 117.835 292.067 117.809 292.209 117.752C292.351 117.695 292.48 117.608 292.585 117.496L296.375 113.49C296.642 113.209 297.009 113.045 297.396 113.034C297.784 113.024 298.159 113.167 298.441 113.434L298.503 113.493C298.643 113.625 298.755 113.784 298.833 113.959C298.911 114.135 298.954 114.324 298.959 114.516C298.964 114.708 298.932 114.899 298.863 115.079C298.794 115.258 298.691 115.422 298.559 115.562L292.678 121.778C292.541 121.922 292.377 122.037 292.195 122.116C292.012 122.194 291.816 122.235 291.617 122.235Z" fill="#E6E6E6"/>
<path d="M233.305 273.273C230.961 273.273 228.67 272.577 226.722 271.273C224.773 269.969 223.255 268.117 222.358 265.949C221.461 263.781 221.226 261.395 221.684 259.094C222.141 256.792 223.269 254.678 224.926 253.019C226.583 251.36 228.695 250.23 230.993 249.772C233.291 249.314 235.674 249.549 237.839 250.447C240.004 251.345 241.854 252.866 243.156 254.817C244.458 256.768 245.153 259.062 245.153 261.408C245.15 264.554 243.9 267.57 241.679 269.794C239.458 272.018 236.446 273.269 233.305 273.273ZM233.305 250.906C231.23 250.906 229.202 251.521 227.477 252.676C225.752 253.83 224.408 255.47 223.614 257.389C222.82 259.308 222.612 261.42 223.017 263.457C223.422 265.495 224.421 267.366 225.888 268.835C227.355 270.304 229.224 271.304 231.258 271.709C233.293 272.115 235.402 271.907 237.318 271.112C239.235 270.317 240.873 268.971 242.026 267.243C243.178 265.516 243.793 263.486 243.793 261.408C243.79 258.624 242.684 255.954 240.718 253.985C238.751 252.016 236.085 250.909 233.305 250.906Z" fill="#E6E6E6"/>
<path d="M232.468 265.878C232.445 265.878 232.421 265.877 232.397 265.876C232.187 265.866 231.981 265.81 231.794 265.713C231.607 265.616 231.444 265.479 231.314 265.313L229.448 262.91C229.33 262.758 229.243 262.585 229.192 262.399C229.141 262.214 229.127 262.021 229.151 261.83C229.175 261.639 229.236 261.455 229.331 261.288C229.426 261.121 229.552 260.974 229.704 260.856L229.771 260.804C229.923 260.686 230.096 260.599 230.281 260.548C230.466 260.497 230.659 260.483 230.85 260.507C231.04 260.53 231.224 260.592 231.391 260.687C231.558 260.782 231.704 260.909 231.822 261.061C231.917 261.182 232.036 261.281 232.172 261.352C232.308 261.423 232.458 261.463 232.611 261.471C232.764 261.478 232.918 261.452 233.06 261.395C233.202 261.338 233.331 261.251 233.436 261.139L237.226 257.133C237.493 256.852 237.86 256.688 238.247 256.677C238.635 256.667 239.01 256.81 239.292 257.077L239.354 257.136C239.494 257.268 239.606 257.427 239.684 257.602C239.762 257.778 239.805 257.967 239.81 258.159C239.815 258.351 239.783 258.542 239.714 258.722C239.645 258.901 239.542 259.065 239.41 259.205L233.529 265.421C233.392 265.565 233.228 265.68 233.046 265.759C232.863 265.837 232.667 265.878 232.468 265.878Z" fill="#E6E6E6"/>
<path d="M103.449 113.291C101.105 113.291 98.8144 112.595 96.8659 111.291C94.9174 109.988 93.3987 108.135 92.5019 105.967C91.6051 103.799 91.3705 101.413 91.8277 99.1118C92.2849 96.8103 93.4133 94.6963 95.0704 93.037C96.7275 91.3778 98.8387 90.2478 101.137 89.79C103.436 89.3322 105.818 89.5672 107.983 90.4651C110.148 91.3631 111.999 92.8838 113.3 94.8349C114.602 96.786 115.297 99.0798 115.297 101.426C115.294 104.572 114.044 107.588 111.823 109.812C109.602 112.036 106.59 113.287 103.449 113.291ZM103.449 90.9236C101.374 90.9236 99.3462 91.5396 97.6213 92.6936C95.8965 93.8477 94.5521 95.488 93.7582 97.4071C92.9643 99.3263 92.7566 101.438 93.1613 103.475C93.566 105.513 94.565 107.384 96.0319 108.853C97.4988 110.322 99.3677 111.322 101.402 111.727C103.437 112.133 105.546 111.925 107.463 111.13C109.379 110.335 111.017 108.989 112.17 107.261C113.322 105.534 113.938 103.504 113.938 101.426C113.934 98.6418 112.828 95.9722 110.862 94.0033C108.896 92.0343 106.23 90.9267 103.449 90.9236Z" fill="#E6E6E6"/>
<path d="M102.612 105.896C102.589 105.896 102.565 105.895 102.541 105.894C102.331 105.884 102.125 105.828 101.938 105.731C101.751 105.634 101.588 105.497 101.458 105.331L99.5919 102.928C99.474 102.776 99.3871 102.603 99.3362 102.417C99.2853 102.232 99.2713 102.039 99.2951 101.848C99.3189 101.657 99.3799 101.473 99.4748 101.306C99.5697 101.139 99.6965 100.992 99.848 100.874L99.9151 100.822C100.067 100.704 100.24 100.617 100.425 100.566C100.61 100.515 100.803 100.501 100.994 100.525C101.184 100.549 101.368 100.61 101.535 100.705C101.702 100.8 101.849 100.927 101.966 101.079C102.061 101.2 102.18 101.299 102.316 101.37C102.452 101.441 102.602 101.481 102.755 101.489C102.909 101.496 103.062 101.471 103.204 101.413C103.346 101.356 103.475 101.269 103.58 101.157L107.37 97.1512C107.637 96.8698 108.004 96.7059 108.392 96.6954C108.779 96.6848 109.155 96.8285 109.436 97.095L109.498 97.1543C109.638 97.2864 109.75 97.4447 109.828 97.6202C109.906 97.7957 109.949 97.9849 109.954 98.177C109.959 98.3691 109.927 98.5604 109.858 98.7398C109.789 98.9193 109.686 99.0834 109.554 99.2229L103.673 105.439C103.536 105.583 103.372 105.698 103.19 105.777C103.007 105.855 102.811 105.896 102.612 105.896Z" fill="#E6E6E6"/>
<path d="M198.309 317.385C170.833 317.385 139.257 286.855 111.32 301.361C26.7334 345.28 38.3772 271.788 14.0762 244.456L14.874 242.854C41.6873 266.928 75.1647 286.515 111.687 299.497C144.692 311.23 177.944 316.666 207.837 315.232L207.889 317.158C204.732 317.31 201.539 317.386 198.309 317.385Z" fill="#F2F2F2"/>
<path d="M160.619 110.968C163.791 110.968 166.363 107.516 166.363 103.257C166.363 98.9979 163.791 95.5454 160.619 95.5454C157.448 95.5454 154.876 98.9979 154.876 103.257C154.876 107.516 157.448 110.968 160.619 110.968Z" fill="#E6E6E6"/>
<path d="M226.953 231.268C224.327 233.02 221.64 228.85 224.316 227.176C226.941 225.425 229.629 229.594 226.953 231.268Z" fill="#E6E6E6"/>
<path d="M177.447 63.312C181.577 63.312 184.926 59.9593 184.926 55.8235C184.926 51.6877 181.577 48.335 177.447 48.335C173.317 48.335 169.968 51.6877 169.968 55.8235C169.968 59.9593 173.317 63.312 177.447 63.312Z" fill="#FF6584"/>
<path opacity="0.3" d="M237.997 124.452L280.552 0L233.824 122.962C233.593 123.254 233.434 123.597 233.362 123.962C233.29 124.327 233.305 124.705 233.408 125.063C233.51 125.421 233.696 125.749 233.951 126.021C234.205 126.292 234.521 126.499 234.871 126.624C235.222 126.75 235.597 126.789 235.966 126.74C236.334 126.691 236.686 126.555 236.992 126.342C237.297 126.13 237.548 125.847 237.723 125.519C237.897 125.19 237.991 124.824 237.997 124.452H237.997Z" fill="#F0F0F0"/>
<path d="M195.042 276.07C199.061 276.07 202.319 272.808 202.319 268.784C202.319 264.76 199.061 261.498 195.042 261.498C191.024 261.498 187.766 264.76 187.766 268.784C187.766 272.808 191.024 276.07 195.042 276.07Z" fill="#F2F2F2"/>
<path d="M124.57 271.563C124.57 271.563 106.431 283.39 111.227 291.25C111.393 291.521 89.5598 320.394 89.5598 320.394L48.3445 317.774L46.8924 331.587L83.5852 342.229C83.5852 342.229 92.5616 348.832 99.4962 341.556C106.431 334.281 129.529 312 129.529 312L130.643 356.984L119.048 419.317L136.361 418.218L153.212 355.682L159.432 284.844L124.57 271.563Z" fill="#2F2E41"/>
<path d="M137.491 200.58L129.863 206.368L121.169 224.949L129.529 236.319C129.529 236.319 136.562 248.523 125.305 260.342C114.048 272.16 105.405 284.783 114.414 284.333C123.424 283.882 159.915 302.466 160.155 287.241C160.395 272.015 160.881 260.342 160.881 260.342L170.448 236.044C170.448 236.044 176.148 221.549 172.146 217.21C168.144 212.872 162.786 207.327 162.786 207.327L153.042 197.57H144.244L137.491 200.58Z" fill="#5C26D2"/>
<path d="M151.73 164.879C168.843 174.63 154.794 200.357 137.363 191.196C120.251 181.445 134.299 155.718 151.73 164.879Z" fill="#A0616A"/>
<path d="M160.881 170.285C159.682 171.847 157.177 171.115 152.271 172.229C152.282 170.564 152.09 168.904 151.699 167.285C151.334 169.289 150.534 171.189 149.356 172.849C145.096 173.322 150.318 186.281 148.137 195.808C145.326 175.708 139.416 180.974 142.402 184.961C144.313 187.513 143.039 195.17 137.304 191.342C127.841 195.845 114.364 173.476 129.301 162.985C129.034 157.315 135.335 156.419 139.216 158.162C148.632 151.138 159.391 160.138 160.881 170.285Z" fill="#2F2E41"/>
<path d="M116.974 155.619C113.164 179.075 92.7428 151.305 83.141 174.388C80.1221 182.747 85.3018 188.727 88.5782 195.666C89.3259 201.368 81.9176 204.261 81.1417 209.51C80.9257 221.544 100.314 220.807 105.734 213.215C111.303 205.267 104.653 194.604 108 186.074C112.705 174.23 131.839 174.142 133.506 160.363C130.278 155.76 121.597 150.487 116.974 155.619Z" fill="#2F2E41"/>
<path d="M132.408 157.911C132.283 157.963 132.158 158.016 132.047 158.075H132.04C131.935 158.128 131.83 158.18 131.725 158.239C131.712 158.246 131.706 158.253 131.693 158.259C131.555 158.128 131.417 157.996 131.273 157.865C131.235 158.079 131.244 158.298 131.299 158.509L131.319 158.587C131.45 158.725 131.588 158.857 131.732 158.995C131.863 158.896 131.988 158.791 132.119 158.693C132.198 158.627 132.276 158.561 132.362 158.496C132.375 158.325 132.394 158.128 132.414 157.911L132.408 157.911ZM136.357 150.607C133.431 149.937 132.486 153.766 132.204 155.612C131.141 148.912 126.72 151.02 128.249 155.592C128.736 156.946 129.502 158.181 130.499 159.218C130.636 159.376 130.787 159.533 130.945 159.691C130.768 160.611 131.66 160.374 132.867 159.527C133.758 158.892 134.582 158.168 135.327 157.366C137.734 154.837 139.61 151.454 136.357 150.607ZM136.449 154.377C135.546 155.542 134.533 156.618 133.424 157.589C133.077 157.904 132.722 158.206 132.362 158.496C132.355 158.555 132.355 158.607 132.349 158.653C132.323 158.717 132.292 158.779 132.257 158.837C131.889 159.501 131.476 159.139 131.319 158.588C131.305 158.568 131.286 158.548 131.273 158.528C130.748 157.986 130.292 157.382 129.915 156.729C127.205 152.025 131.568 148.826 131.351 157.609C131.312 157.689 131.285 157.776 131.273 157.865C131.235 158.079 131.244 158.298 131.299 158.509L131.319 158.588C131.45 158.725 131.588 158.857 131.732 158.995C131.863 158.896 131.988 158.791 132.119 158.693C132.198 158.627 132.276 158.561 132.362 158.496C132.375 158.325 132.394 158.128 132.414 157.911V157.904C132.585 156.144 133.051 152.978 133.91 152.117C135.799 150.666 138.246 152.236 136.449 154.377ZM132.408 157.911C132.283 157.963 132.158 158.016 132.047 158.075H132.04C131.935 158.128 131.83 158.18 131.725 158.239C131.712 158.246 131.706 158.253 131.693 158.259C131.555 158.128 131.417 157.996 131.273 157.865C131.235 158.079 131.244 158.298 131.299 158.509L131.319 158.587C131.45 158.725 131.588 158.857 131.732 158.995C131.863 158.896 131.988 158.791 132.119 158.693C132.198 158.627 132.276 158.561 132.362 158.496C132.375 158.325 132.394 158.128 132.414 157.911L132.408 157.911Z" fill="#2F2E41"/>
<path d="M290.576 287.231L284.255 303.735L254.607 362.295L280.659 430.418L294.104 426.864L283.022 362.295L314.816 323.614L352.573 349.256C352.573 349.256 369.318 362.346 375.689 349.937C382.059 337.528 423.28 311.133 423.28 311.133L413.082 300.241L365.614 322.484L332.852 276.309L290.576 287.231Z" fill="#2F2E41"/>
<path d="M322.466 209.381L312.062 198.188L294.216 195.73L272.348 211.059L272.568 228.026L283.378 268.007C283.378 268.007 279.261 296.732 290.762 296.444C302.263 296.156 308.531 290.414 313.216 291.583C317.9 292.752 337.812 297.726 339.074 292.516C340.335 287.305 347.043 291.036 346.749 286.107C346.454 281.179 328.59 245.651 328.59 245.651L333.032 210.12L322.466 209.381Z" fill="#5C26D2"/>
<path d="M388.34 157.86C388.433 158.788 388.322 159.725 388.014 160.606C387.706 161.486 387.209 162.289 386.558 162.956C385.907 163.623 385.118 164.14 384.246 164.469C383.375 164.798 382.441 164.931 381.512 164.86L357.587 210.422L351.164 200.548L375.619 157.548C375.842 155.993 376.626 154.574 377.824 153.56C379.022 152.546 380.55 152.007 382.118 152.046C383.686 152.084 385.185 152.697 386.332 153.769C387.479 154.841 388.193 156.296 388.34 157.86Z" fill="#FFB6B6"/>
<path d="M313.021 217.853C313.021 217.853 312.072 225.957 321.183 227.963C330.295 229.97 355.539 215.526 359.678 213.32C360.973 212.63 362.732 209.244 364.536 204.918C365.346 202.976 366.165 200.845 366.956 198.683C367.414 197.432 369.605 197.091 370.036 195.85C370.465 194.616 369.134 192.483 369.523 191.32C371.366 185.8 372.672 181.422 372.672 181.422L366.633 170.062C358.187 174.534 353.855 184.382 350.668 195.729L313.021 217.853Z" fill="#5C26D2"/>
<path d="M206.607 168.323C206.749 169.245 207.091 170.124 207.609 170.9C208.127 171.675 208.808 172.327 209.605 172.81C210.402 173.293 211.295 173.595 212.222 173.695C213.148 173.796 214.085 173.691 214.966 173.389L249.517 211.506L253.269 200.337L218.845 164.833C218.241 163.383 217.126 162.206 215.713 161.525C214.3 160.843 212.686 160.704 211.178 161.135C209.669 161.565 208.371 162.534 207.528 163.859C206.686 165.184 206.358 166.772 206.607 168.323Z" fill="#FFB6B6"/>
<path d="M294.523 207.533C294.523 207.533 297.467 215.141 289.147 219.367C280.827 223.593 252.776 215.935 248.218 214.836C246.791 214.492 244.242 211.654 241.414 207.919C240.145 206.242 238.819 204.383 237.513 202.489C236.757 201.392 234.55 201.611 233.823 200.518C233.099 199.43 233.855 197.032 233.188 196.003C230.024 191.121 227.665 187.209 227.665 187.209L230.673 174.698C239.968 176.91 246.623 185.36 252.544 195.547L294.523 207.533Z" fill="#5C26D2"/>
<path d="M303.495 192.883C312.873 192.883 320.475 185.27 320.475 175.88C320.475 166.489 312.873 158.876 303.495 158.876C294.117 158.876 286.514 166.489 286.514 175.88C286.514 185.27 294.117 192.883 303.495 192.883Z" fill="#FFB6B6"/>
<path d="M322.878 166.144C321.092 163.377 317.74 161.533 314.491 162.051C314.188 159.975 313.323 158.021 311.988 156.403C310.654 154.785 308.902 153.565 306.922 152.875C304.943 152.185 302.813 152.052 300.764 152.49C298.714 152.929 296.824 153.922 295.299 155.362C294.798 155.008 294.214 154.79 293.604 154.729C292.993 154.668 292.378 154.766 291.816 155.013C290.698 155.522 289.725 156.304 288.987 157.287C287.122 159.615 285.923 162.406 285.517 165.363C285.111 168.319 285.513 171.331 286.68 174.077C286.283 172.631 287.73 171.271 289.192 170.947C290.654 170.623 292.187 170.929 293.669 170.718C295.569 170.448 297.277 169.344 299.18 169.095C300.794 168.99 302.413 169.199 303.947 169.709C305.482 170.219 307.098 170.436 308.712 170.35C310.314 170.159 312.377 176.237 312.35 180.518C312.344 181.329 312.511 182.37 313.303 182.543C314.278 182.755 314.843 181.407 315.771 181.04C316.199 180.917 316.657 180.965 317.05 181.175C317.443 181.384 317.739 181.737 317.877 182.161C317.994 182.592 318.006 183.044 317.913 183.481C317.82 183.918 317.625 184.326 317.342 184.671C316.772 185.356 316.095 185.944 315.337 186.413L315.719 186.731C316.082 187.115 316.567 187.361 317.091 187.426C317.614 187.491 318.145 187.372 318.59 187.089C319.466 186.494 320.176 185.685 320.651 184.738C322.443 181.965 323.723 178.892 324.432 175.667C325.031 172.427 324.664 168.911 322.878 166.144Z" fill="#2F2E41"/>
<path d="M448.5 233.205C426.598 249.816 383.018 244.568 369.494 273.022C328.546 359.17 293.515 293.546 257.663 286.449L257.333 284.689C293.223 287.67 331.721 283.045 368.663 271.314C402.048 260.713 431.833 244.944 454.797 225.728L456 227.232C453.575 229.262 451.076 231.253 448.5 233.205Z" fill="#F2F2F2"/>
<path d="M355.898 458.839C355.376 460.386 57.541 460.386 56.9782 458.843C57.4992 457.292 355.334 457.292 355.898 458.839Z" fill="#CCCCCC"/>
<path d="M216.039 60.5887L206.43 66.144L211.978 75.7662L221.587 70.2108L216.039 60.5887Z" fill="#FF6584"/>
<path d="M216.161 77.7719L210.368 67.7246L220.402 61.9238L226.195 71.9713L216.161 77.7719ZM211.038 67.9043L216.341 77.1013L225.526 71.7915L220.223 62.5944L211.038 67.9043Z" fill="#2F2E41"/>
<path d="M207.172 104.77C209.744 104.77 211.828 102.683 211.828 100.108C211.828 97.5324 209.744 95.4448 207.172 95.4448C204.6 95.4448 202.515 97.5324 202.515 100.108C202.515 102.683 204.6 104.77 207.172 104.77Z" fill="#D0CDE1"/>
<path d="M210.603 105.016C209.633 105.016 208.686 104.728 207.88 104.189C207.073 103.65 206.445 102.883 206.074 101.986C205.703 101.089 205.606 100.102 205.795 99.1503C205.984 98.1982 206.451 97.3237 207.137 96.6373C207.822 95.9509 208.696 95.4834 209.646 95.294C210.597 95.1046 211.583 95.2018 212.479 95.5733C213.374 95.9448 214.14 96.5739 214.678 97.381C215.217 98.1882 215.504 99.1371 215.504 100.108C215.504 101.41 214.988 102.658 214.069 103.578C213.149 104.499 211.903 105.016 210.603 105.016ZM210.603 95.6905C209.73 95.6905 208.877 95.9496 208.152 96.435C207.426 96.9204 206.861 97.6103 206.527 98.4174C206.193 99.2246 206.106 100.113 206.276 100.97C206.446 101.827 206.866 102.614 207.483 103.231C208.1 103.849 208.886 104.27 209.742 104.44C210.598 104.611 211.485 104.523 212.291 104.189C213.097 103.855 213.786 103.288 214.271 102.562C214.756 101.836 215.014 100.982 215.014 100.108C215.014 98.9363 214.549 97.8127 213.722 96.9843C212.895 96.1559 211.773 95.6905 210.603 95.6905Z" fill="#2F2E41"/>
<path d="M236.548 154.485H191.453C190.9 154.485 190.371 154.265 189.98 153.873C189.59 153.482 189.37 152.952 189.369 152.399V110.435C189.37 109.882 189.59 109.351 189.98 108.96C190.371 108.569 190.9 108.349 191.453 108.349H236.548C237.1 108.349 237.63 108.569 238.02 108.96C238.411 109.351 238.63 109.882 238.631 110.435V152.399C238.63 152.952 238.411 153.482 238.02 153.873C237.63 154.265 237.1 154.485 236.548 154.485Z" fill="#5C26D2"/>
<path d="M217.186 155.959H210.814C210.261 155.958 209.732 155.738 209.341 155.347C208.951 154.956 208.731 154.426 208.731 153.873V109.188C208.731 108.635 208.951 108.105 209.341 107.714C209.732 107.323 210.261 107.103 210.814 107.102H217.186C217.738 107.103 218.268 107.323 218.658 107.714C219.049 108.105 219.268 108.635 219.269 109.188V153.873C219.268 154.426 219.049 154.956 218.658 155.347C218.268 155.738 217.738 155.958 217.186 155.959Z" fill="#3F3D56"/>
<path d="M248.529 104.194C248.266 108.524 242.426 111.69 242.426 111.69C242.426 111.69 237.013 107.837 237.276 103.508C237.54 99.1788 243.38 96.0127 243.38 96.0127C243.38 96.0127 248.792 99.8654 248.529 104.194Z" fill="#3F3D56"/>
<path opacity="0.1" d="M238.508 113.482V129.503L222.595 108.471H234.717L238.508 113.482Z" fill="black"/>
<path d="M252.017 140.906C251.695 140.906 251.377 140.832 251.089 140.689C250.8 140.546 250.549 140.337 250.355 140.08L217.201 96.2651C217.036 96.0468 216.915 95.798 216.846 95.533C216.777 95.268 216.761 94.9919 216.798 94.7205C216.835 94.4492 216.926 94.1878 217.064 93.9514C217.202 93.715 217.385 93.5082 217.603 93.3428L222.487 89.6377C222.705 89.4723 222.954 89.3514 223.218 89.2822C223.483 89.2129 223.759 89.1965 224.03 89.2339C224.301 89.2714 224.562 89.3619 224.798 89.5003C225.034 89.6388 225.24 89.8224 225.406 90.0408L258.559 133.856C258.724 134.074 258.845 134.323 258.914 134.588C258.983 134.853 259 135.129 258.962 135.4C258.925 135.672 258.835 135.933 258.696 136.169C258.558 136.406 258.375 136.613 258.157 136.778L253.273 140.483C252.912 140.758 252.471 140.906 252.017 140.906Z" fill="#5C26D2"/>
<path d="M238.747 106.86L230.347 113.232L236.712 121.643L245.111 115.271L238.747 106.86Z" fill="#3F3D56"/>
<path d="M195.537 74.808L192.665 85.54L203.383 88.4157L206.255 77.6836L195.537 74.808Z" fill="#D0CDE1"/>
<path d="M198.836 90.02L187.645 87.0173L190.644 75.811L201.835 78.8137L198.836 90.02ZM188.245 86.6703L198.49 89.4189L201.235 79.1607L190.99 76.4121L188.245 86.6703Z" fill="#2F2E41"/>
</g>
<defs>
<clipPath id="clip0_445_6732">
<rect width="456" height="460" fill="white"/>
</clipPath>
</defs>
</svg>
