<svg width="34" height="34" viewBox="0 0 34 34" fill="none" xmlns="http://www.w3.org/2000/svg">
<path d="M17.0002 0.333252C26.2052 0.333252 33.6668 7.79492 33.6668 16.9999C33.6668 26.2049 26.2052 33.6666 17.0002 33.6666C7.79516 33.6666 0.333496 26.2049 0.333496 16.9999C0.333496 7.79492 7.79516 0.333252 17.0002 0.333252ZM17.0002 3.66659C13.4639 3.66659 10.0726 5.07134 7.57207 7.57183C5.07159 10.0723 3.66683 13.4637 3.66683 16.9999C3.66683 20.5361 5.07159 23.9275 7.57207 26.428C10.0726 28.9285 13.4639 30.3333 17.0002 30.3333C20.5364 30.3333 23.9278 28.9285 26.4283 26.428C28.9287 23.9275 30.3335 20.5361 30.3335 16.9999C30.3335 13.4637 28.9287 10.0723 26.4283 7.57183C23.9278 5.07134 20.5364 3.66659 17.0002 3.66659ZM17.0002 8.66658C18.7545 8.66725 20.4638 9.22154 21.8847 10.2505C23.3056 11.2794 24.3655 12.7305 24.9134 14.3971C25.4614 16.0636 25.4694 17.8606 24.9363 19.532C24.4033 21.2033 23.3564 22.6638 21.9448 23.7054C20.5331 24.747 18.8288 25.3166 17.0746 25.3329C15.3203 25.3492 13.6057 24.8115 12.1749 23.7964C10.7442 22.7813 9.67023 21.3405 9.10617 19.6793C8.54211 18.0182 8.51668 16.2214 9.0335 14.5449C9.42336 15.4161 10.1006 16.127 10.9519 16.5585C11.8032 16.9901 12.7769 17.1162 13.7101 16.9157C14.6432 16.7152 15.4792 16.2003 16.0781 15.4571C16.677 14.714 17.0025 13.7877 17.0002 12.8333C17.0004 12.0307 16.7688 11.2452 16.3333 10.571C15.8978 9.89693 15.2769 9.36294 14.5452 9.03325C15.3218 8.79492 16.1452 8.66658 17.0002 8.66658Z" fill="#00B14F"/>
</svg>
